<?xml version="1.0" standalone="no"?>
<!DOCTYPE svg PUBLIC "-//W3C//DTD SVG 20010904//EN"
 "http://www.w3.org/TR/2001/REC-SVG-20010904/DTD/svg10.dtd">
<svg version="1.0" xmlns="http://www.w3.org/2000/svg"
 width="1024.000000pt" height="1024.000000pt" viewBox="0 0 1024.000000 1024.000000"
 preserveAspectRatio="xMidYMid meet">
<metadata>
Created by potrace 1.14, written by Peter Selinger 2001-2017
</metadata>
<g transform="translate(0.000000,1024.000000) scale(0.100000,-0.100000)"
fill="#000000" stroke="none">
<path d="M4888 10235 c-2 -1 -41 -5 -88 -9 -88 -7 -140 -12 -200 -21 -126 -19
-158 -25 -180 -30 -14 -3 -41 -7 -60 -10 -19 -3 -50 -9 -67 -14 -18 -5 -33 -8
-33 -5 0 3 -8 0 -17 -5 -10 -5 -31 -11 -48 -14 -90 -16 -431 -127 -537 -176
-26 -11 -50 -21 -53 -21 -14 0 -281 -133 -287 -144 -4 -6 -8 -8 -8 -3 0 4 -18
-4 -40 -18 -22 -14 -42 -25 -45 -25 -3 0 -31 -16 -61 -35 -30 -19 -56 -35 -59
-35 -13 0 -362 -247 -395 -280 -3 -3 -32 -27 -65 -55 -163 -135 -362 -337
-489 -495 -20 -25 -42 -52 -49 -59 -6 -8 -35 -47 -64 -85 -29 -39 -57 -76 -62
-83 -22 -25 -141 -214 -198 -313 -68 -119 -182 -350 -209 -425 -9 -27 -21 -54
-24 -60 -4 -5 -13 -28 -20 -50 -7 -22 -16 -44 -20 -50 -5 -5 -8 -13 -8 -18 0
-4 -12 -43 -26 -85 -15 -43 -28 -87 -31 -98 -2 -10 -16 -57 -29 -104 -14 -47
-27 -96 -29 -110 -3 -14 -10 -43 -15 -65 -6 -22 -14 -53 -16 -70 -3 -16 -8
-41 -11 -55 -3 -14 -8 -45 -11 -70 -3 -25 -8 -47 -9 -50 -4 -6 -18 -134 -19
-167 -1 -13 -3 -23 -6 -23 -8 0 -14 -165 -13 -390 0 -200 3 -249 18 -340 3
-19 8 -48 10 -65 2 -16 7 -41 10 -55 3 -14 7 -38 10 -55 3 -16 8 -42 11 -57 3
-15 6 -31 6 -35 1 -8 39 -149 59 -223 5 -19 11 -43 14 -53 5 -22 25 -86 36
-112 4 -11 24 -69 44 -130 21 -60 43 -123 50 -140 7 -16 32 -79 55 -140 24
-60 55 -138 71 -173 16 -34 29 -64 29 -66 0 -2 14 -34 32 -72 17 -38 33 -71
33 -74 7 -23 92 -196 273 -555 8 -16 24 -42 34 -57 11 -16 16 -28 13 -28 -3 0
2 -12 12 -27 11 -16 34 -57 53 -93 18 -36 36 -67 39 -70 3 -3 21 -34 40 -70
19 -36 40 -72 47 -80 7 -8 12 -17 11 -20 -1 -6 107 -193 134 -232 10 -15 19
-32 19 -38 0 -5 4 -10 9 -10 5 0 12 -11 15 -25 4 -14 11 -25 16 -25 6 0 10 -5
10 -10 0 -6 16 -36 35 -66 19 -30 35 -59 35 -64 0 -6 5 -10 10 -10 6 0 10 -4
10 -10 0 -8 38 -71 59 -96 5 -6 12 -20 15 -32 4 -12 12 -22 17 -22 5 0 9 -7 9
-15 0 -8 5 -15 10 -15 6 0 10 -4 10 -10 0 -9 69 -123 90 -147 5 -7 10 -17 10
-23 0 -5 5 -10 10 -10 6 0 10 -7 10 -15 0 -8 5 -15 10 -15 6 0 10 -7 10 -15 0
-8 5 -15 10 -15 6 0 10 -4 10 -9 0 -13 220 -345 231 -349 5 -2 9 -8 9 -13 0
-5 25 -44 55 -86 31 -43 58 -86 62 -95 3 -10 8 -18 12 -18 3 0 17 -18 31 -40
14 -22 28 -40 33 -40 4 0 5 -5 2 -10 -3 -6 1 -13 9 -16 9 -3 16 -10 16 -16 0
-7 98 -150 143 -208 7 -9 28 -38 47 -65 19 -28 38 -51 42 -53 4 -2 8 -8 8 -13
0 -6 13 -27 28 -47 16 -20 47 -62 69 -92 22 -30 127 -172 234 -314 107 -142
199 -266 204 -274 6 -9 16 -22 22 -30 7 -7 37 -46 67 -85 30 -40 64 -82 75
-94 12 -12 21 -25 21 -27 0 -5 98 -132 148 -191 9 -11 43 -54 76 -95 33 -41
62 -77 66 -80 3 -3 21 -25 40 -50 48 -63 107 -121 163 -159 47 -32 150 -79
192 -87 65 -13 87 -16 151 -16 42 0 103 9 150 22 80 21 204 83 204 100 0 6 5
10 11 10 12 0 104 92 133 134 11 15 28 37 39 49 10 12 33 41 50 64 17 24 34
43 39 43 4 0 8 6 8 14 0 8 3 16 8 18 4 1 23 23 42 48 19 25 39 51 45 57 5 7
19 24 30 39 11 14 28 35 38 45 9 11 17 22 17 26 0 4 11 18 24 32 13 15 61 76
107 136 102 135 324 432 347 463 9 13 28 39 42 57 14 18 43 59 65 90 22 31 48
66 57 78 16 21 98 134 126 174 7 10 59 83 115 163 56 80 132 188 167 240 36
52 73 104 82 114 10 11 18 26 18 33 0 8 7 16 15 19 8 4 15 10 15 15 0 4 25 45
55 89 30 44 55 85 55 90 0 4 4 10 8 12 5 2 27 32 50 68 23 36 46 70 52 77 5 7
15 24 22 38 6 14 14 25 18 25 4 0 15 15 24 33 19 37 39 70 46 77 7 6 43 61 50
75 15 31 206 331 212 333 5 2 8 8 8 14 0 6 18 39 40 74 22 35 40 68 40 74 0 5
5 10 10 10 6 0 10 4 10 9 0 5 33 65 73 133 40 67 77 130 80 138 4 8 15 29 25
45 29 47 174 312 216 395 21 41 43 79 47 85 5 5 9 17 9 26 0 10 4 19 9 21 6 2
122 228 126 248 1 3 20 43 42 90 22 47 41 90 43 95 1 6 10 26 20 45 28 56 109
247 147 350 20 52 40 106 46 120 6 14 11 30 13 35 1 6 12 37 24 70 25 70 80
242 85 268 2 10 9 33 15 52 5 19 15 50 20 68 6 18 10 42 10 54 0 11 3 23 7 27
4 3 8 17 10 29 2 12 10 54 18 94 8 39 17 89 20 110 3 21 7 47 10 58 26 121 26
641 0 774 -2 13 -7 47 -10 75 -11 99 -18 139 -41 246 -3 14 -8 39 -10 55 -3
17 -12 55 -21 85 -8 30 -16 66 -19 80 -6 32 -62 219 -74 245 -5 11 -14 37 -20
58 -7 22 -18 51 -26 65 -8 15 -14 32 -14 37 0 11 -50 131 -94 227 -15 32 -25
59 -24 61 2 2 -3 11 -9 19 -7 8 -27 43 -46 79 -34 68 -136 247 -150 264 -4 6
-37 55 -73 110 -37 55 -70 102 -75 103 -5 2 -9 9 -9 15 0 7 -15 28 -33 48 -17
21 -41 50 -52 65 -20 28 -62 80 -80 100 -5 6 -30 35 -55 64 -94 110 -362 370
-382 370 -5 0 -6 5 -3 10 3 6 -1 10 -9 10 -8 0 -21 8 -28 18 -7 9 -23 24 -34
32 -12 8 -58 43 -101 77 -44 34 -131 96 -194 137 -63 42 -119 80 -126 86 -7 5
-15 10 -18 10 -4 0 -44 22 -89 49 -84 49 -389 201 -405 201 -5 0 -30 9 -56 21
-78 35 -290 110 -310 110 -2 0 -23 6 -46 14 -23 9 -51 17 -63 19 -12 3 -68 17
-126 31 -58 15 -118 29 -135 31 -16 3 -50 9 -75 14 -25 5 -67 12 -95 16 -27 4
-57 8 -65 9 -8 2 -46 6 -85 10 -38 4 -83 9 -100 12 -32 5 -561 13 -567 8z
m232 -2559 c33 0 63 4 66 7 4 4 12 3 18 0 6 -4 24 -8 40 -9 109 -9 311 -59
343 -85 7 -6 13 -9 13 -6 0 16 179 -83 294 -163 78 -53 261 -251 302 -325 6
-11 27 -48 47 -83 20 -34 36 -65 36 -67 1 -3 7 -18 14 -33 8 -15 20 -45 26
-67 7 -22 16 -49 21 -60 5 -11 12 -33 16 -50 4 -16 8 -32 9 -35 1 -3 5 -25 9
-50 5 -25 10 -54 13 -65 2 -11 6 -51 8 -90 2 -38 5 -71 5 -72 3 -4 3 -42 0
-45 -1 -2 -3 -30 -5 -63 -2 -58 -12 -135 -20 -165 -2 -8 -7 -29 -10 -47 -3
-17 -19 -69 -36 -115 -16 -46 -31 -89 -31 -95 -1 -7 -5 -13 -9 -13 -4 0 -10
-13 -14 -29 -3 -16 -13 -35 -21 -42 -8 -6 -14 -19 -14 -28 0 -10 -8 -26 -17
-37 -10 -10 -34 -44 -54 -74 -56 -84 -133 -170 -225 -249 -55 -47 -230 -161
-249 -161 -8 0 -15 -4 -15 -10 0 -5 -5 -10 -11 -10 -6 0 -25 -6 -42 -14 -78
-33 -114 -47 -135 -51 -12 -2 -26 -6 -30 -9 -5 -3 -22 -8 -38 -10 -16 -3 -40
-8 -54 -11 -29 -7 -93 -16 -132 -19 -15 -1 -30 -5 -34 -9 -4 -3 -12 -3 -17 0
-16 10 -127 10 -127 0 0 -5 -5 -5 -12 -1 -7 4 -24 9 -38 10 -46 3 -121 14
-168 25 -26 6 -55 12 -64 14 -9 2 -25 8 -35 13 -10 6 -22 10 -26 10 -43 0
-337 151 -337 173 0 5 -7 9 -15 9 -8 0 -15 5 -15 10 0 6 -5 10 -11 10 -22 0
-180 159 -244 245 -16 22 -31 42 -34 45 -21 18 -124 222 -140 275 -7 22 -16
49 -21 60 -5 11 -12 34 -16 50 -4 17 -8 32 -9 35 -1 3 -5 25 -9 50 -5 25 -10
54 -13 65 -2 11 -6 52 -8 90 -2 39 -5 71 -5 73 -3 3 -3 41 0 45 1 1 3 31 5 67
3 60 7 93 20 160 3 14 7 36 10 49 2 14 14 54 26 90 12 36 22 67 21 68 0 1 19
43 44 93 108 221 252 386 449 515 83 55 226 127 275 140 3 0 28 9 56 18 28 10
62 20 75 22 13 3 35 8 49 10 29 6 90 15 138 20 18 1 36 6 40 10 4 3 8 3 9 -2
2 -4 30 -8 63 -7z"/>
</g>
</svg>
